<svg width="37" height="24" viewBox="0 0 37 24" fill="none" xmlns="http://www.w3.org/2000/svg">
<path d="M8.52247 4.21526C7.74352 3.92547 6.6996 3.73128 5.30056 3.73128C4.48303 3.73128 3.7967 3.85389 3.22191 4.04965L5.82022 4.25089L1.97472 4.66662L1.97471 4.68497C1.70565 4.87779 1.47991 5.08465 1.29142 5.29022L5.50843 4.97842L0.935393 5.80988H0.882571C0.532899 6.33114 0.419115 6.74529 0.419115 6.74529C0.380817 6.89409 0.345029 7.0439 0.311798 7.19466L4.7809 6.74527L1.55899 7.26494L0.519663 7.68067L0.207865 7.71577C0.0712806 8.48026 0 9.26737 0 10.0711C0 17.4184 5.95612 23.3745 13.3034 23.3745C15.1472 23.3745 16.9035 22.9994 18.5 22.3213C13.735 20.2974 10.3933 15.5745 10.3933 10.0711C10.3933 9.21856 10.4735 8.38472 10.6267 7.57674L5.82022 7.05707L10.6898 7.26494C10.7272 7.09043 10.7681 6.91719 10.8124 6.7453L10.7051 6.74527L6.44382 5.49808L6.54775 5.18629L10.5316 5.80987C10.3261 5.42835 9.97027 4.98946 9.35393 4.61357L9.04213 4.56269L6.85955 4.04965L8.52247 4.21526Z" fill="url(#paint0_linear_593_2)"/>
<path d="M28.3736 3.73128C27.9579 4.42806 30.0365 9.57223 29.6208 9.44752C29.2051 9.32281 29.2746 9.09086 28.4775 8.0964C27.6939 7.11872 26.8146 4.87449 26.6067 5.49808C26.3989 6.12168 26.3989 6.32354 26.3989 6.75847C26.3989 7.52322 26.3282 7.88853 26.4675 8.4082C26.6067 8.92786 28.8933 11.734 28.8933 11.734C28.8933 11.734 26.7542 9.44752 26.6067 9.44752C26.4593 9.44752 26.6067 9.73397 26.6067 10.0711C26.6067 15.5745 23.265 20.2974 18.5 22.3213C16.9035 22.9994 15.1472 23.3745 13.3034 23.3745H23.6966C31.0439 23.3745 37 17.4184 37 10.0711C37 8.92747 36.8557 7.81751 36.5843 6.75847C36.5843 6.75847 35.6337 2.06843 30.6601 2.06836C29.4257 2.06834 28.3736 3.73128 28.3736 3.73128Z" fill="url(#paint1_linear_593_2)"/>
<path d="M24.3203 22.4896C29.3055 20.5691 32.8428 15.7332 32.8428 10.0711C32.8428 9.50796 32.8078 8.95297 32.7399 8.4082" stroke="black" stroke-width="0.25"/>
<path d="M12.6608 22.1275C8.12848 20.0068 4.98877 15.4057 4.98877 10.0713C4.98877 6.09792 6.7307 2.53141 9.49254 0.09375" stroke="black" stroke-width="0.25"/>
<defs>
<linearGradient id="paint0_linear_593_2" x1="18.5" y1="2.06836" x2="18.5" y2="23.3745" gradientUnits="userSpaceOnUse">
<stop stop-color="#1D7D53"/>
<stop offset="1" stop-color="#2DC583"/>
</linearGradient>
<linearGradient id="paint1_linear_593_2" x1="18.5" y1="2.06836" x2="18.5" y2="23.3745" gradientUnits="userSpaceOnUse">
<stop stop-color="#67BFFB"/>
<stop offset="0.5" stop-color="#18A0FB"/>
<stop offset="1" stop-color="#0E5F95"/>
</linearGradient>
</defs>
</svg>
