<svg width="178" height="113" viewBox="0 0 178 113" fill="none" xmlns="http://www.w3.org/2000/svg">
<path d="M41 20.0161C37.2526 18.6219 32.2305 17.6877 25.5 17.6877C21.567 17.6877 18.2652 18.2776 15.5 19.2194L28 20.1875L9.5 22.1875L9.49998 22.2758C8.20555 23.2034 7.11959 24.1986 6.21277 25.1875L26.5 23.6875L4.5 27.6875H4.24588C2.56368 30.1952 2.01628 32.1876 2.01628 32.1876C1.83204 32.9034 1.65987 33.6241 1.5 34.3494L23 32.1875L7.5 34.6875L2.5 36.6875L1 36.8564C0.342918 40.5342 0 44.3208 0 48.1876C0 83.5338 28.6538 112.188 64 112.188C72.8705 112.188 81.3196 110.383 89 107.121C66.0764 97.3841 50 74.6633 50 48.1876C50 44.086 50.3858 40.0745 51.1232 36.1875L28 33.6875L51.4264 34.6875C51.6067 33.848 51.8034 33.0146 52.0162 32.1876L51.5 32.1875L31 26.1875L31.5 24.6875L50.6657 27.6874C49.6771 25.852 47.9651 23.7406 45 21.9323L43.5 21.6875L33 19.2194L41 20.0161Z" fill="url(#paint0_linear_513_188)"/>
<path d="M136.5 17.6877C134.5 21.0398 144.5 45.7875 142.5 45.1875C140.5 44.5875 140.835 43.4717 137 38.6875C133.23 33.9841 129 23.1875 128 26.1875C127 29.1875 127 30.1586 127 32.251C127 35.9301 126.66 37.6875 127.33 40.1875C128 42.6875 139 56.1875 139 56.1875C139 56.1875 128.709 45.1875 128 45.1875C127.291 45.1875 128 46.5655 128 48.1876C128 74.6633 111.924 97.3841 89 107.121C81.3196 110.383 72.8705 112.188 64 112.188H114C149.346 112.188 178 83.5338 178 48.1876C178 42.6856 177.306 37.3458 176 32.251C176 32.251 171.427 9.6881 147.5 9.68774C141.561 9.68765 136.5 17.6877 136.5 17.6877Z" fill="url(#paint1_linear_513_188)"/>
<path d="M117 107.93C140.983 98.6913 158 75.4266 158 48.1875C158 45.4782 157.832 42.8083 157.505 40.1875" stroke="black" stroke-width="0.5"/>
<path d="M60.9085 106.188C39.1046 95.9855 24 73.8504 24 48.1875C24 29.0724 32.3801 11.9146 45.6668 0.1875" stroke="black" stroke-width="0.5"/>
<defs>
<linearGradient id="paint0_linear_513_188" x1="89" y1="9.68774" x2="89" y2="112.188" gradientUnits="userSpaceOnUse">
<stop stop-color="#1D7D53"/>
<stop offset="1" stop-color="#2DC583"/>
</linearGradient>
<linearGradient id="paint1_linear_513_188" x1="89" y1="9.68774" x2="89" y2="112.188" gradientUnits="userSpaceOnUse">
<stop stop-color="#67BFFB"/>
<stop offset="0.5" stop-color="#18A0FB"/>
<stop offset="1" stop-color="#0E5F95"/>
</linearGradient>
</defs>
</svg>
